<?xml version="1.0" encoding="utf-8"?>
<!-- Generator: Adobe Illustrator 19.2.1, SVG Export Plug-In . SVG Version: 6.00 Build 0)  -->
<svg version="1.1" id="layer" xmlns="http://www.w3.org/2000/svg" xmlns:xlink="http://www.w3.org/1999/xlink" x="0px" y="0px"
	 viewBox="0 0 652 652" style="enable-background:new 0 0 652 652;" xml:space="preserve">
<style type="text/css">
	.st0{fill:#FFFFFF;}
	.st1{fill:#FF322E;}
</style>
<rect x="70.6" y="71.9" width="500" height="500"/>
<g id="Artboard-1">
	<path id="Fill-1" class="st0" d="M143.9,483.9h353.5V117.4H143.9V483.9z"/>
	<path id="Fill-2" class="st1" d="M143.9,483.9l0,42.6h353.5v-42.6H143.9z"/>
	<path id="Fill-3" d="M340,214v178.5h42.8V250H400c20,0,31.4,9.5,31.4,26.8c0,16.9-11.4,26.8-31.4,26.8h-2.8v36h4.6
		c46.2,0,73.2-23.2,73.2-62.8c0-40.3-27.1-62.8-73.2-62.8L340,214L340,214z M225.4,214l-59.5,178.5h43.1l40.4-126.2l20.3,63.1h-26.2
		l-10.5,36h48.2l8.7,27.1h44.3L274.7,214H225.4L225.4,214z"/>
</g>
</svg>
